{
    "asset" : {
        "generator" : "Khronos glTF Blender I/O v3.4.50",
        "version" : "2.0"
    },
    "scene" : 0,
    "scenes" : [
        {
            "name" : "Scene",
            "nodes" : [
                0,
                1
            ]
        }
    ],
    "nodes" : [
        {
            "mesh" : 0,
            "name" : "GREEN TERR",
            "rotation" : [
                0,
                -1,
                0,
                4.371139183945161e-08
            ],
            "scale" : [
                17.713960647583008,
                9.276731491088867,
                17.713960647583008
            ],
            "translation" : [
                -12.319070816040039,
                1.9344019889831543,
                -0.04761305823922157
            ]
        },
        {
            "mesh" : 1,
            "name" : "DESERT TERR",
            "rotation" : [
                0,
                0.70710688829422,
                0,
                0.7071066498756409
            ],
            "scale" : [
                17.713960647583008,
                9.276731491088867,
                17.713960647583008
            ],
            "translation" : [
                10.296697616577148,
                1.9344063997268677,
                0
            ]
        }
    ],
    "materials" : [
        {
            "doubleSided" : true,
            "name" : "GREEN",
            "pbrMetallicRoughness" : {
                "baseColorTexture" : {
                    "index" : 0
                }
            }
        },
        {
            "doubleSided" : true,
            "name" : "Material.001",
            "pbrMetallicRoughness" : {
                "baseColorFactor" : [
                    0.22025270760059357,
                    0.08504840731620789,
                    0.017494140192866325,
                    1
                ],
                "metallicFactor" : 0.8695651888847351
            }
        },
        {
            "doubleSided" : true,
            "name" : "DESERT",
            "pbrMetallicRoughness" : {
                "baseColorTexture" : {
                    "index" : 1
                }
            }
        }
    ],
    "meshes" : [
        {
            "name" : "ZXVC",
            "primitives" : [
                {
                    "attributes" : {
                        "POSITION" : 0,
                        "TEXCOORD_0" : 1,
                        "NORMAL" : 2
                    },
                    "indices" : 3,
                    "material" : 0
                },
                {
                    "attributes" : {
                        "POSITION" : 4,
                        "TEXCOORD_0" : 5,
                        "NORMAL" : 6
                    },
                    "indices" : 7,
                    "material" : 1
                }
            ]
        },
        {
            "name" : "ZXVC.001",
            "primitives" : [
                {
                    "attributes" : {
                        "POSITION" : 8,
                        "TEXCOORD_0" : 9,
                        "NORMAL" : 10
                    },
                    "indices" : 11,
                    "material" : 2
                },
                {
                    "attributes" : {
                        "POSITION" : 12,
                        "TEXCOORD_0" : 13,
                        "NORMAL" : 14
                    },
                    "indices" : 15,
                    "material" : 1
                }
            ]
        }
    ],
    "textures" : [
        {
            "sampler" : 0,
            "source" : 0
        },
        {
            "sampler" : 0,
            "source" : 1
        }
    ],
    "images" : [
        {
            "mimeType" : "image/png",
            "name" : "green",
            "uri" : "green.png"
        },
        {
            "mimeType" : "image/png",
            "name" : "desert",
            "uri" : "desert.png"
        }
    ],
    "accessors" : [
        {
            "bufferView" : 0,
            "componentType" : 5126,
            "count" : 28367,
            "max" : [
                0.49379968643188477,
                0.43467947840690613,
                0.4912237823009491
            ],
            "min" : [
                -0.49379968643188477,
                -0.05038135498762131,
                -0.49637559056282043
            ],
            "type" : "VEC3"
        },
        {
            "bufferView" : 1,
            "componentType" : 5126,
            "count" : 28367,
            "type" : "VEC2"
        },
        {
            "bufferView" : 2,
            "componentType" : 5126,
            "count" : 28367,
            "type" : "VEC3"
        },
        {
            "bufferView" : 3,
            "componentType" : 5123,
            "count" : 165336,
            "type" : "SCALAR"
        },
        {
            "bufferView" : 4,
            "componentType" : 5126,
            "count" : 31768,
            "max" : [
                0.49950405955314636,
                0.4214519262313843,
                0.4998078942298889
            ],
            "min" : [
                -0.499504029750824,
                -0.20024368166923523,
                -0.49980786442756653
            ],
            "type" : "VEC3"
        },
        {
            "bufferView" : 5,
            "componentType" : 5126,
            "count" : 31768,
            "type" : "VEC2"
        },
        {
            "bufferView" : 6,
            "componentType" : 5126,
            "count" : 31768,
            "type" : "VEC3"
        },
        {
            "bufferView" : 7,
            "componentType" : 5123,
            "count" : 181416,
            "type" : "SCALAR"
        },
        {
            "bufferView" : 8,
            "componentType" : 5126,
            "count" : 7313,
            "max" : [
                0.5000000596046448,
                0.43467897176742554,
                0.49731215834617615
            ],
            "min" : [
                -0.5000000596046448,
                -0.0614933967590332,
                -0.502687931060791
            ],
            "type" : "VEC3"
        },
        {
            "bufferView" : 9,
            "componentType" : 5126,
            "count" : 7313,
            "type" : "VEC2"
        },
        {
            "bufferView" : 10,
            "componentType" : 5126,
            "count" : 7313,
            "type" : "VEC3"
        },
        {
            "bufferView" : 11,
            "componentType" : 5123,
            "count" : 42336,
            "type" : "SCALAR"
        },
        {
            "bufferView" : 12,
            "componentType" : 5126,
            "count" : 7809,
            "max" : [
                0.5000000596046448,
                0.43467897176742554,
                0.502687931060791
            ],
            "min" : [
                -0.5000000596046448,
                -0.20024412870407104,
                -0.502687931060791
            ],
            "type" : "VEC3"
        },
        {
            "bufferView" : 13,
            "componentType" : 5126,
            "count" : 7809,
            "type" : "VEC2"
        },
        {
            "bufferView" : 14,
            "componentType" : 5126,
            "count" : 7809,
            "type" : "VEC3"
        },
        {
            "bufferView" : 15,
            "componentType" : 5123,
            "count" : 44352,
            "type" : "SCALAR"
        }
    ],
    "bufferViews" : [
        {
            "buffer" : 0,
            "byteLength" : 340404,
            "byteOffset" : 0,
            "target" : 34962
        },
        {
            "buffer" : 0,
            "byteLength" : 226936,
            "byteOffset" : 340404,
            "target" : 34962
        },
        {
            "buffer" : 0,
            "byteLength" : 340404,
            "byteOffset" : 567340,
            "target" : 34962
        },
        {
            "buffer" : 0,
            "byteLength" : 330672,
            "byteOffset" : 907744,
            "target" : 34963
        },
        {
            "buffer" : 0,
            "byteLength" : 381216,
            "byteOffset" : 1238416,
            "target" : 34962
        },
        {
            "buffer" : 0,
            "byteLength" : 254144,
            "byteOffset" : 1619632,
            "target" : 34962
        },
        {
            "buffer" : 0,
            "byteLength" : 381216,
            "byteOffset" : 1873776,
            "target" : 34962
        },
        {
            "buffer" : 0,
            "byteLength" : 362832,
            "byteOffset" : 2254992,
            "target" : 34963
        },
        {
            "buffer" : 0,
            "byteLength" : 87756,
            "byteOffset" : 2617824,
            "target" : 34962
        },
        {
            "buffer" : 0,
            "byteLength" : 58504,
            "byteOffset" : 2705580,
            "target" : 34962
        },
        {
            "buffer" : 0,
            "byteLength" : 87756,
            "byteOffset" : 2764084,
            "target" : 34962
        },
        {
            "buffer" : 0,
            "byteLength" : 84672,
            "byteOffset" : 2851840,
            "target" : 34963
        },
        {
            "buffer" : 0,
            "byteLength" : 93708,
            "byteOffset" : 2936512,
            "target" : 34962
        },
        {
            "buffer" : 0,
            "byteLength" : 62472,
            "byteOffset" : 3030220,
            "target" : 34962
        },
        {
            "buffer" : 0,
            "byteLength" : 93708,
            "byteOffset" : 3092692,
            "target" : 34962
        },
        {
            "buffer" : 0,
            "byteLength" : 88704,
            "byteOffset" : 3186400,
            "target" : 34963
        }
    ],
    "samplers" : [
        {
            "magFilter" : 9729,
            "minFilter" : 9987
        }
    ],
    "buffers" : [
        {
            "byteLength" : 3275104,
            "uri" : "terrain.bin"
        }
    ]
}
