<svg width="24" height="24" viewBox="0 0 24 24" fill="none" xmlns="http://www.w3.org/2000/svg">
<path d="M16.8987 17.0407C17.2282 16.7896 17.2917 16.319 17.0406 15.9895C16.7895 15.6601 16.3188 15.5966 15.9894 15.8477L16.8987 17.0407ZM12 17.9854V18.7355L12.0123 18.7353L12 17.9854ZM8.01115 8.15217C8.34036 7.90078 8.40344 7.43012 8.15206 7.10091C7.90067 6.7717 7.43 6.70862 7.1008 6.96L8.01115 8.15217ZM4.29229 12.8927L4.92374 12.488L4.29229 12.8927ZM4.29411 11.1062L4.92651 11.5094L4.29411 11.1062ZM10.258 5.46407C9.85466 5.55848 9.60424 5.96195 9.69864 6.36527C9.79305 6.76858 10.1965 7.019 10.5998 6.92459L10.258 5.46407ZM12 6.01477L11.9983 6.76477H12V6.01477ZM18.0399 13.9038C17.7732 14.2207 17.8139 14.6938 18.1309 14.9605C18.4478 15.2272 18.9209 15.1865 19.1876 14.8695L18.0399 13.9038ZM19.7089 11.1092L19.0774 11.5138L19.7089 11.1092ZM19.7086 12.8931L20.3418 13.2951L19.7086 12.8931ZM14.1348 14.0974C14.4172 13.7943 14.4004 13.3198 14.0974 13.0374C13.7944 12.755 13.3198 12.7717 13.0374 13.0748L14.1348 14.0974ZM10.9252 10.9626C11.2283 10.6802 11.245 10.2056 10.9626 9.9026C10.6802 9.59956 10.2057 9.58281 9.90263 9.86519L10.9252 10.9626ZM15.9894 15.8477C14.8378 16.7255 13.4356 17.2118 11.9878 17.2355L12.0123 18.7353C13.7802 18.7064 15.4925 18.1126 16.8987 17.0407L15.9894 15.8477ZM12 17.2354C10.2466 17.2354 8.74981 16.4792 7.53727 15.4848C6.32246 14.4885 5.43517 13.286 4.92374 12.488L3.66085 13.2974C4.21871 14.1678 5.20464 15.5117 6.58606 16.6446C7.96975 17.7794 9.79215 18.7354 12 18.7354V17.2354ZM4.92651 11.5094C5.74845 10.2202 6.79195 9.08316 8.01115 8.15217L7.1008 6.96C5.74149 7.99798 4.57809 9.26565 3.6617 10.703L4.92651 11.5094ZM4.92374 12.488C4.73284 12.1901 4.73226 11.8141 4.92651 11.5094L3.6617 10.703C3.15725 11.4943 3.15043 12.501 3.66085 13.2974L4.92374 12.488ZM10.5998 6.92459C11.0582 6.8173 11.5275 6.76367 11.9983 6.76477L12.0018 5.26478C11.4148 5.2634 10.8296 5.33028 10.258 5.46407L10.5998 6.92459ZM12 6.76477C13.7541 6.76477 15.2513 7.52148 16.4641 8.51643C17.6791 9.51325 18.5663 10.7162 19.0774 11.5138L20.3404 10.7046C19.7829 9.83455 18.7971 8.49025 17.4155 7.35676C16.0316 6.22142 14.2087 5.26477 12 5.26477V6.76477ZM19.0754 12.4912C18.7623 12.9843 18.4164 13.4563 18.0399 13.9038L19.1876 14.8695C19.6073 14.3708 19.9928 13.8447 20.3418 13.2951L19.0754 12.4912ZM19.0774 11.5138C19.2679 11.8112 19.2688 12.1865 19.0754 12.4912L20.3418 13.2951C20.8437 12.5044 20.8499 11.4998 20.3404 10.7046L19.0774 11.5138ZM13.0374 13.0748C12.6648 13.4746 12.1037 13.6392 11.5742 13.504L11.2031 14.9573C12.264 15.2283 13.3883 14.8985 14.1348 14.0974L13.0374 13.0748ZM11.5742 13.504C11.0447 13.3687 10.6313 12.9553 10.496 12.4258L9.04267 12.7969C9.31363 13.8579 10.1421 14.6864 11.2031 14.9573L11.5742 13.504ZM10.496 12.4258C10.3608 11.8963 10.5254 11.3352 10.9252 10.9626L9.90263 9.86519C9.10149 10.6117 8.77172 11.736 9.04267 12.7969L10.496 12.4258Z" fill="#ABB3BB"/>
<path d="M5 5L19 19" stroke="#ABB3BB" stroke-width="1.5" stroke-linecap="round" stroke-linejoin="round"/>
</svg>
