<svg xmlns="http://www.w3.org/2000/svg" viewBox="0 0 500 500"><g id="freepik--background-simple--inject-3"><path d="M453.85,326.35C433.7,367,398,409.07,354.52,417.16c-65.67,12.23-80.58,66.85-192.61,46.7a210.23,210.23,0,0,1-47.7-14.31,180.13,180.13,0,0,1-21.8-11.41c-62-38-87.75-106.93-81.65-174.65,8-89.08,70-123.8,109.91-143.65s96.81-109.76,207.1-90.9a204.11,204.11,0,0,1,49,14.69c35.82,16,70.48,45.55,87.75,84.27q1.95,4.35,3.65,8.87C490.4,195.54,481.31,271,453.85,326.35Z" style="fill:#7E57C2"></path><path d="M453.85,326.35C433.7,367,398,409.07,354.52,417.16c-65.67,12.23-80.58,66.85-192.61,46.7a210.23,210.23,0,0,1-47.7-14.31,180.13,180.13,0,0,1-21.8-11.41c-62-38-87.75-106.93-81.65-174.65,8-89.08,70-123.8,109.91-143.65s96.81-109.76,207.1-90.9a204.11,204.11,0,0,1,49,14.69c35.82,16,70.48,45.55,87.75,84.27q1.95,4.35,3.65,8.87C490.4,195.54,481.31,271,453.85,326.35Z" style="fill:#fff;opacity:0.8"></path></g><g id="freepik--Clouds--inject-3"><path d="M429.51,99.33H287.79l.76-.84c.24-.25,5.79-6.26,16.37-9.61,7.41-2.34,10.16.87,12,3,.86,1,1.37,1.57,2,1.45.82-.16,1.8-1.25,3-2.64,2.43-2.72,6.1-6.84,13.06-9,6.12-1.93,9.85,1.39,12.58,3.82,2.45,2.18,3.82,3.25,5.64,1.83a28.71,28.71,0,0,0,4-4.61c5.21-6.73,13.1-16.9,27-13.86,16.93,3.71,15.7,19.39,15.45,21.5,2.18,2.5,4.46,1.3,8-.86,3-1.84,6.4-3.94,10.11-2.23,7.31,3.38,11.21,11,11.38,11.37Zm-139.36-1h137.7c-1.16-2-4.79-7.55-10.5-10.19-3.22-1.48-6.24.38-9.17,2.17-3.19,2-6.5,4-9.38.48l-.14-.17,0-.23c.11-.68,2.49-16.84-14.65-20.59-13.31-2.91-21,7-26,13.5a29.68,29.68,0,0,1-4.2,4.78c-2.57,2-4.69.12-6.93-1.87-2.68-2.4-6-5.37-11.61-3.61-6.7,2.11-10.26,6.11-12.61,8.75-1.42,1.58-2.44,2.72-3.59,3s-2-.69-2.94-1.78c-1.75-2-4.15-4.82-10.93-2.68A40.51,40.51,0,0,0,290.15,98.33Z" style="fill:#263238"></path><path d="M160.08,72H77.85l.76-.84a22.94,22.94,0,0,1,9.5-5.58c4.39-1.38,6.09.6,7.11,1.78.43.51.72.82.94.77.4-.08,1-.71,1.62-1.45a16.19,16.19,0,0,1,7.6-5.25c3.63-1.15,5.83.8,7.43,2.23s2.1,1.73,3,1a17.46,17.46,0,0,0,2.28-2.61c3-3.91,7.61-9.82,15.73-8,9.67,2.11,9.21,10.91,9.05,12.48,1.12,1.22,2.3.59,4.23-.6,1.77-1.09,3.78-2.32,6-1.29a15.83,15.83,0,0,1,6.64,6.63ZM80.25,71h78.16a14.44,14.44,0,0,0-5.75-5.44c-1.75-.81-3.43.23-5.06,1.23-1.83,1.13-3.89,2.4-5.67.23l-.14-.18,0-.22c.07-.38,1.4-9.48-8.24-11.59-7.52-1.64-11.86,4-14.73,7.68a17.55,17.55,0,0,1-2.45,2.79c-1.62,1.25-3,.06-4.25-1.09-1.59-1.41-3.38-3-6.47-2a15.3,15.3,0,0,0-7.15,5c-.84.94-1.44,1.61-2.18,1.76S95,68.7,94.46,68.06c-1-1.13-2.29-2.67-6-1.48A23.38,23.38,0,0,0,80.25,71Z" style="fill:#263238"></path><path d="M348.2,142.41H290.91l.76-.83a15.73,15.73,0,0,1,6.61-3.89c3.12-1,4.34.43,5.07,1.27.15.17.45.5.5.48.23-.05.62-.49,1-.95a11.34,11.34,0,0,1,5.31-3.67c2.59-.82,4.14.57,5.27,1.57s1.36,1.1,1.86.72a12.64,12.64,0,0,0,1.54-1.78c2.11-2.72,5.3-6.85,11-5.59a7.79,7.79,0,0,1,6.37,8.7c.64.66,1.28.37,2.67-.49,1.2-.74,2.67-1.65,4.3-.9a11,11,0,0,1,4.64,4.64Zm-54.86-1h53.18a9.61,9.61,0,0,0-3.74-3.45c-1.14-.53-2.21.14-3.35.84s-2.8,1.73-4.11.12l-.14-.17,0-.22c0-.26.93-6.4-5.56-7.82-5.09-1.11-7.93,2.56-10,5.24a12.36,12.36,0,0,1-1.72,2c-1.22.95-2.23,0-3.13-.76-1.06-.94-2.26-2-4.31-1.37a10.36,10.36,0,0,0-4.86,3.38c-.6.67-1,1.16-1.58,1.27s-1.08-.37-1.46-.81c-.67-.78-1.51-1.76-4-1A16.29,16.29,0,0,0,293.34,141.41Z" style="fill:#263238"></path></g><g id="freepik--Trees--inject-3"><path d="M100.8,271.36c0,24.93-14.75,45.15-32.95,45.15s-32.94-20.22-32.94-45.15S49.66,160.72,67.85,160.72,100.8,246.42,100.8,271.36Z" style="fill:#7E57C2"></path><path d="M100.8,271.36c0,24.93-14.75,45.15-32.95,45.15s-32.94-20.22-32.94-45.15S49.66,160.72,67.85,160.72,100.8,246.42,100.8,271.36Z" style="fill:#fff;opacity:0.5"></path><polygon points="50.06 273.6 60.56 277.27 65.77 284.34 64.86 306.01 58.8 301.9 64.67 310.49 63.75 383.5 69.45 381.94 68.88 294.02 86.33 284.4 76.35 288.09 78.35 282.09 73.58 289.12 68.82 290.88 68.48 271.16 85.81 248.13 76.53 257.42 78.1 250.96 73.65 260.29 68.39 265.56 67.85 234.75 65.97 279.69 49.54 262.28 58.56 274.55 50.06 273.6" style="fill:#999"></polygon><path d="M86,234.85a7.16,7.16,0,0,1-6,8.05,7.16,7.16,0,0,1,6-8.05Z" style="fill:#fff"></path><path d="M95.91,248.8a7.16,7.16,0,0,1-6,8.05,7.16,7.16,0,0,1,6-8.05Z" style="fill:#fff"></path><path d="M95.9,276a7.16,7.16,0,0,1-8.35,5.57A7.17,7.17,0,0,1,95.9,276Z" style="fill:#fff"></path><path d="M41.37,276a8.38,8.38,0,0,0,3,4.49,8.4,8.4,0,0,0,5.31,1.08,8.38,8.38,0,0,0-3-4.49A8.4,8.4,0,0,0,41.37,276Z" style="fill:#fff"></path><path d="M84.44,264.69a7.16,7.16,0,0,1-6,8.05,7.16,7.16,0,0,1,6-8.05Z" style="fill:#fff"></path><path d="M81.86,219.67a7.16,7.16,0,0,1-6,8.05,7.16,7.16,0,0,1,6-8.05Z" style="fill:#fff"></path><path d="M76,231.25a7.14,7.14,0,0,1-6,8,7.16,7.16,0,0,1,6-8Z" style="fill:#fff"></path><path d="M90,222.82a7.16,7.16,0,0,1-6,8.05,7.16,7.16,0,0,1,6-8.05Z" style="fill:#fff"></path><path d="M44.35,222.82a8.45,8.45,0,0,0,1.35,5.25,8.42,8.42,0,0,0,4.64,2.8A8.37,8.37,0,0,0,49,225.62,8.35,8.35,0,0,0,44.35,222.82Z" style="fill:#fff"></path><path d="M83.15,205.52a7.16,7.16,0,0,1-6,8,7.16,7.16,0,0,1,6-8Z" style="fill:#fff"></path><path d="M80.24,190.49a7.17,7.17,0,0,1-3.78,9.3,7.17,7.17,0,0,1,3.78-9.3Z" style="fill:#fff"></path><path d="M59.41,186.57A7.15,7.15,0,0,1,62.83,196a7.16,7.16,0,0,1-3.42-9.43Z" style="fill:#fff"></path><path d="M69.12,204.54a7.16,7.16,0,0,1-.57,10,7.16,7.16,0,0,1,.57-10Z" style="fill:#fff"></path><path d="M68.61,177.79a7.15,7.15,0,0,1-.58,10,7.15,7.15,0,0,1,.58-10Z" style="fill:#fff"></path><path d="M46.8,234.85a8.45,8.45,0,0,0,1.35,5.25,8.45,8.45,0,0,0,4.64,2.8,8.37,8.37,0,0,0-1.35-5.25A8.35,8.35,0,0,0,46.8,234.85Z" style="fill:#fff"></path><path d="M41.14,251.31a8.45,8.45,0,0,0,1.35,5.25,8.46,8.46,0,0,0,4.65,2.8,8.45,8.45,0,0,0-1.35-5.25A8.46,8.46,0,0,0,41.14,251.31Z" style="fill:#fff"></path><path d="M56.17,257.29a7.16,7.16,0,0,0,6,8,8.45,8.45,0,0,0-1.35-5.25A8.45,8.45,0,0,0,56.17,257.29Z" style="fill:#fff"></path><path d="M60.27,234.48a7.15,7.15,0,0,0,3.44,9.42,7.15,7.15,0,0,0-3.44-9.42Z" style="fill:#fff"></path><path d="M49.64,295.18a8.36,8.36,0,0,0,5.12-1.78,8.36,8.36,0,0,0,2.4-4.85A8.4,8.4,0,0,0,52,290.32,8.47,8.47,0,0,0,49.64,295.18Z" style="fill:#fff"></path><path d="M78.82,291.85A8.43,8.43,0,0,0,82,296.24a8.43,8.43,0,0,0,5.35.9,8.43,8.43,0,0,0-3.18-4.39A8.43,8.43,0,0,0,78.82,291.85Z" style="fill:#fff"></path><path d="M53,219.67a7.16,7.16,0,0,0,6,8.05,8.37,8.37,0,0,0-1.35-5.25A8.42,8.42,0,0,0,53,219.67Z" style="fill:#fff"></path><path d="M53,206.29a7.16,7.16,0,0,0,6,8.05,8.45,8.45,0,0,0-1.35-5.25A8.45,8.45,0,0,0,53,206.29Z" style="fill:#fff"></path><path d="M139.08,308.13c0,16.34-9.66,29.58-21.59,29.58s-21.58-13.24-21.58-29.58,9.66-72.48,21.58-72.48S139.08,291.8,139.08,308.13Z" style="fill:#7E57C2"></path><path d="M139.08,308.13c0,16.34-9.66,29.58-21.59,29.58s-21.58-13.24-21.58-29.58,9.66-72.48,21.58-72.48S139.08,291.8,139.08,308.13Z" style="fill:#fff;opacity:0.5"></path><polygon points="105.84 309.6 112.72 312 116.13 316.64 115.53 330.83 111.56 328.14 115.41 333.77 114.73 354.18 118.79 353.33 118.16 322.98 129.6 316.68 123.06 319.1 124.37 315.16 121.25 319.77 118.13 320.92 117.91 308 129.26 292.92 123.17 299 124.2 294.77 121.29 300.88 117.84 304.33 117.5 284.15 116.26 313.59 105.5 302.19 111.41 310.22 105.84 309.6" style="fill:#999"></polygon><path d="M129.37,284.21a4.71,4.71,0,0,1-3.93,5.28,4.71,4.71,0,0,1,3.93-5.28Z" style="fill:#fff"></path><path d="M135.87,293.35a4.69,4.69,0,0,1-3.92,5.28,4.69,4.69,0,0,1,3.92-5.28Z" style="fill:#fff"></path><path d="M135.87,311.15a5.53,5.53,0,0,1-2,2.94,5.47,5.47,0,0,1-3.48.7,4.68,4.68,0,0,1,5.47-3.64Z" style="fill:#fff"></path><path d="M100.14,311.15a4.7,4.7,0,0,0,5.48,3.64,4.69,4.69,0,0,0-5.48-3.64Z" style="fill:#fff"></path><path d="M128.36,303.76a4.69,4.69,0,0,1-3.93,5.27,4.71,4.71,0,0,1,3.93-5.27Z" style="fill:#fff"></path><path d="M126.67,274.27a4.68,4.68,0,0,1-3.92,5.27,4.68,4.68,0,0,1,3.92-5.27Z" style="fill:#fff"></path><path d="M122.8,281.86a4.71,4.71,0,0,1-3.93,5.27,4.69,4.69,0,0,1,3.93-5.27Z" style="fill:#fff"></path><path d="M132,276.33a4.71,4.71,0,0,1-3.93,5.28,4.71,4.71,0,0,1,3.93-5.28Z" style="fill:#fff"></path><path d="M102.1,276.33a4.69,4.69,0,0,0,3.92,5.28,4.69,4.69,0,0,0-3.92-5.28Z" style="fill:#fff"></path><path d="M127.52,265a5.56,5.56,0,0,1-.89,3.44,5.5,5.5,0,0,1-3,1.84,4.69,4.69,0,0,1,3.93-5.28Z" style="fill:#fff"></path><path d="M125.61,255.16a4.69,4.69,0,0,1-2.47,6.09,4.69,4.69,0,0,1,2.47-6.09Z" style="fill:#fff"></path><path d="M112,252.59a4.67,4.67,0,0,1,2.24,6.17,4.69,4.69,0,0,1-2.24-6.17Z" style="fill:#fff"></path><path d="M118.33,264.36a4.69,4.69,0,0,1-.38,6.56,4.69,4.69,0,0,1,.38-6.56Z" style="fill:#fff"></path><path d="M118,246.83a4.69,4.69,0,0,1-.38,6.56,4.69,4.69,0,0,1,.38-6.56Z" style="fill:#fff"></path><path d="M103.7,284.21a5.56,5.56,0,0,0,.89,3.44,5.5,5.5,0,0,0,3,1.84,4.69,4.69,0,0,0-3.93-5.28Z" style="fill:#fff"></path><path d="M100,295a4.68,4.68,0,0,0,3.92,5.27A4.68,4.68,0,0,0,100,295Z" style="fill:#fff"></path><path d="M109.84,298.92a4.69,4.69,0,0,0,3.92,5.27,5.52,5.52,0,0,0-.88-3.44A5.45,5.45,0,0,0,109.84,298.92Z" style="fill:#fff"></path><path d="M112.53,284a4.69,4.69,0,0,0,2.25,6.18,4.69,4.69,0,0,0-2.25-6.18Z" style="fill:#fff"></path><path d="M105.56,323.74a5.52,5.52,0,0,0,3.35-1.17,5.46,5.46,0,0,0,1.58-3.18,4.7,4.7,0,0,0-4.93,4.35Z" style="fill:#fff"></path><path d="M124.68,321.56a4.69,4.69,0,0,0,5.59,3.46,5.56,5.56,0,0,0-2.09-2.87A5.48,5.48,0,0,0,124.68,321.56Z" style="fill:#fff"></path><path d="M107.78,274.27a4.69,4.69,0,0,0,3.93,5.27,4.69,4.69,0,0,0-3.93-5.27Z" style="fill:#fff"></path><path d="M107.75,265.51a4.68,4.68,0,0,0,3.92,5.27,4.68,4.68,0,0,0-3.92-5.27Z" style="fill:#fff"></path><path d="M460.44,146c0,16.33-9.66,29.58-21.58,29.58S417.27,162.33,417.27,146s9.67-72.48,21.59-72.48S460.44,129.66,460.44,146Z" style="fill:#7E57C2"></path><path d="M460.44,146c0,16.33-9.66,29.58-21.58,29.58S417.27,162.33,417.27,146s9.67-72.48,21.59-72.48S460.44,129.66,460.44,146Z" style="fill:#fff;opacity:0.5"></path><polygon points="427.2 147.47 434.08 149.87 437.49 154.5 436.89 168.7 432.93 166 436.77 171.63 436.04 217.75 440.19 215.42 439.52 160.85 450.96 154.55 444.42 156.96 445.73 153.03 442.61 157.63 439.49 158.79 439.27 145.87 450.62 130.78 444.54 136.87 445.56 132.64 442.65 138.75 439.2 142.2 438.86 122.02 437.62 151.45 426.86 140.05 432.77 148.09 427.2 147.47" style="fill:#999"></polygon><path d="M450.73,122.08a4.67,4.67,0,0,1-3.93,5.27,4.69,4.69,0,0,1,3.93-5.27Z" style="fill:#fff"></path><path d="M457.23,131.22a5.53,5.53,0,0,1-.88,3.44,5.45,5.45,0,0,1-3,1.83,4.68,4.68,0,0,1,3.92-5.27Z" style="fill:#fff"></path><path d="M457.23,149a4.68,4.68,0,0,1-5.47,3.64,4.68,4.68,0,0,1,5.47-3.64Z" style="fill:#fff"></path><path d="M421.51,149a4.68,4.68,0,0,0,5.47,3.64,4.68,4.68,0,0,0-5.47-3.64Z" style="fill:#fff"></path><path d="M449.72,141.63a4.69,4.69,0,0,1-3.93,5.27,4.69,4.69,0,0,1,3.93-5.27Z" style="fill:#fff"></path><path d="M448,112.14a4.68,4.68,0,0,1-3.92,5.27,4.68,4.68,0,0,1,3.92-5.27Z" style="fill:#fff"></path><path d="M444.16,119.72a4.69,4.69,0,0,1-3.93,5.27,4.71,4.71,0,0,1,3.93-5.27Z" style="fill:#fff"></path><path d="M453.36,114.2a4.69,4.69,0,0,1-3.93,5.27,4.69,4.69,0,0,1,3.93-5.27Z" style="fill:#fff"></path><path d="M423.46,114.2a4.68,4.68,0,0,0,3.92,5.27,4.68,4.68,0,0,0-3.92-5.27Z" style="fill:#fff"></path><path d="M448.88,102.87a4.69,4.69,0,0,1-3.93,5.27,4.67,4.67,0,0,1,3.93-5.27Z" style="fill:#fff"></path><path d="M447,93a5.55,5.55,0,0,1,0,3.56,5.46,5.46,0,0,1-2.48,2.53,5.45,5.45,0,0,1,0-3.55A5.51,5.51,0,0,1,447,93Z" style="fill:#fff"></path><path d="M433.32,90.45a5.55,5.55,0,0,1,2.39,2.63,5.48,5.48,0,0,1-.15,3.55,4.7,4.7,0,0,1-2.24-6.18Z" style="fill:#fff"></path><path d="M439.69,102.23a4.69,4.69,0,0,1-.38,6.56,4.69,4.69,0,0,1,.38-6.56Z" style="fill:#fff"></path><path d="M439.35,84.7a4.69,4.69,0,0,1-.38,6.56,4.69,4.69,0,0,1,.38-6.56Z" style="fill:#fff"></path><path d="M425.07,122.08a5.53,5.53,0,0,0,.88,3.44,5.45,5.45,0,0,0,3,1.83,4.68,4.68,0,0,0-3.92-5.27Z" style="fill:#fff"></path><path d="M421.36,132.87a4.68,4.68,0,0,0,3.92,5.27,4.68,4.68,0,0,0-3.92-5.27Z" style="fill:#fff"></path><path d="M431.2,136.78a4.68,4.68,0,0,0,3.92,5.27,4.69,4.69,0,0,0-3.92-5.27Z" style="fill:#fff"></path><path d="M433.89,121.84a4.67,4.67,0,0,0,2.25,6.17,4.68,4.68,0,0,0-2.25-6.17Z" style="fill:#fff"></path><path d="M426.92,161.6a4.67,4.67,0,0,0,4.93-4.34,5.48,5.48,0,0,0-3.35,1.16A5.54,5.54,0,0,0,426.92,161.6Z" style="fill:#fff"></path><path d="M446,159.42a4.7,4.7,0,0,0,5.59,3.47,4.72,4.72,0,0,0-5.59-3.47Z" style="fill:#fff"></path><path d="M429.14,112.14a4.69,4.69,0,0,0,3.93,5.27,4.69,4.69,0,0,0-3.93-5.27Z" style="fill:#fff"></path><path d="M429.11,103.38a4.69,4.69,0,0,0,3.92,5.27,5.52,5.52,0,0,0-.88-3.44A5.45,5.45,0,0,0,429.11,103.38Z" style="fill:#fff"></path><path d="M394.67,227.49c0,14.87-8.8,26.93-19.65,26.93s-19.66-12.06-19.66-26.93,8.8-66,19.66-66S394.67,212.61,394.67,227.49Z" style="fill:#7E57C2"></path><path d="M394.67,227.49c0,14.87-8.8,26.93-19.65,26.93s-19.66-12.06-19.66-26.93,8.8-66,19.66-66S394.67,212.61,394.67,227.49Z" style="fill:#fff;opacity:0.5"></path><polygon points="364.4 228.82 370.67 231.01 373.77 235.23 373.23 248.16 369.62 245.71 373.12 250.83 372.59 286.38 375.83 285.21 375.63 241.01 386.04 235.27 380.09 237.47 381.28 233.89 378.44 238.08 375.59 239.13 375.39 227.37 385.73 213.63 380.19 219.17 381.13 215.32 378.48 220.88 375.33 224.03 375.02 205.65 373.89 232.46 364.09 222.07 369.47 229.39 364.4 228.82" style="fill:#999"></polygon><path d="M385.83,205.7a4.26,4.26,0,0,1-3.57,4.81,5,5,0,0,1,.8-3.14A5.07,5.07,0,0,1,385.83,205.7Z" style="fill:#fff"></path><path d="M391.76,214a4.28,4.28,0,0,1-3.58,4.8,4.28,4.28,0,0,1,3.58-4.8Z" style="fill:#fff"></path><path d="M391.75,230.23a4.27,4.27,0,0,1-5,3.32,4.27,4.27,0,0,1,5-3.32Z" style="fill:#fff"></path><path d="M359.22,230.23a4.27,4.27,0,0,0,5,3.32,4.27,4.27,0,0,0-5-3.32Z" style="fill:#fff"></path><path d="M384.91,223.51a5,5,0,0,1-.81,3.13,5,5,0,0,1-2.76,1.67,4.26,4.26,0,0,1,3.57-4.8Z" style="fill:#fff"></path><path d="M383.38,196.65a4.28,4.28,0,0,1-3.58,4.8,4.28,4.28,0,0,1,3.58-4.8Z" style="fill:#fff"></path><path d="M379.85,203.56a5,5,0,0,1-.81,3.13,5.07,5.07,0,0,1-2.77,1.67,4.26,4.26,0,0,1,3.58-4.8Z" style="fill:#fff"></path><path d="M388.23,198.53a5,5,0,0,1-.81,3.13,5.07,5.07,0,0,1-2.77,1.67,4.28,4.28,0,0,1,3.58-4.8Z" style="fill:#fff"></path><path d="M361,198.53a5,5,0,0,0,.81,3.13,5.07,5.07,0,0,0,2.77,1.67,4.28,4.28,0,0,0-3.58-4.8Z" style="fill:#fff"></path><path d="M384.14,188.21a4.26,4.26,0,0,1-3.57,4.8,4.26,4.26,0,0,1,3.57-4.8Z" style="fill:#fff"></path><path d="M382.41,179.24a4.27,4.27,0,0,1-2.26,5.55,4.28,4.28,0,0,1,2.26-5.55Z" style="fill:#fff"></path><path d="M370,176.9a4.26,4.26,0,0,1,2,5.62,4.26,4.26,0,0,1-2-5.62Z" style="fill:#fff"></path><path d="M375.77,187.62a4.28,4.28,0,0,1-.34,6,4.28,4.28,0,0,1,.34-6Z" style="fill:#fff"></path><path d="M375.47,171.66a5.06,5.06,0,0,1,1,3.06,5,5,0,0,1-1.4,2.91,4.26,4.26,0,0,1,.35-6Z" style="fill:#fff"></path><path d="M362.46,205.7a4.26,4.26,0,0,0,3.57,4.81,4.26,4.26,0,0,0-3.57-4.81Z" style="fill:#fff"></path><path d="M359.08,215.53a4.28,4.28,0,0,0,3.58,4.8,4.28,4.28,0,0,0-3.58-4.8Z" style="fill:#fff"></path><path d="M368,219.09a4.28,4.28,0,0,0,3.58,4.8,4.28,4.28,0,0,0-3.58-4.8Z" style="fill:#fff"></path><path d="M370.49,205.48a4.29,4.29,0,0,0,2.05,5.63,4.26,4.26,0,0,0-2.05-5.63Z" style="fill:#fff"></path><path d="M364.15,241.7a4.28,4.28,0,0,0,4.49-4,5,5,0,0,0-3.06,1.06A5,5,0,0,0,364.15,241.7Z" style="fill:#fff"></path><path d="M381.56,239.71a5,5,0,0,0,1.9,2.62,5,5,0,0,0,3.19.54,4.28,4.28,0,0,0-5.09-3.16Z" style="fill:#fff"></path><path d="M366.17,196.65a4.28,4.28,0,0,0,3.58,4.8,4.28,4.28,0,0,0-3.58-4.8Z" style="fill:#fff"></path><path d="M366.14,188.67a4.28,4.28,0,0,0,3.58,4.8,4.28,4.28,0,0,0-3.58-4.8Z" style="fill:#fff"></path><path d="M357.18,261.75c0,9.32-5.51,16.87-12.3,16.87s-12.31-7.55-12.31-16.87,5.51-41.32,12.31-41.32S357.18,252.44,357.18,261.75Z" style="fill:#7E57C2"></path><path d="M357.18,261.75c0,9.32-5.51,16.87-12.3,16.87s-12.31-7.55-12.31-16.87,5.51-41.32,12.31-41.32S357.18,252.44,357.18,261.75Z" style="fill:#fff;opacity:0.5"></path><polygon points="338.23 262.59 342.15 263.96 344.1 266.6 343.76 274.69 341.5 273.16 343.69 276.37 343.3 291.48 345.52 291.48 345.26 270.22 351.78 266.63 348.05 268 348.8 265.76 347.02 268.39 345.24 269.05 345.11 261.68 351.58 253.08 348.12 256.55 348.7 254.14 347.04 257.62 345.07 259.59 344.88 248.08 344.17 264.86 338.04 258.36 341.41 262.94 338.23 262.59" style="fill:#999"></polygon><path d="M351.65,248.12a2.68,2.68,0,0,1-2.24,3,2.66,2.66,0,0,1,2.24-3Z" style="fill:#fff"></path><path d="M355.35,253.33a2.66,2.66,0,0,1-2.23,3,2.66,2.66,0,0,1,2.23-3Z" style="fill:#fff"></path><path d="M355.35,263.47a3.12,3.12,0,0,1-1.13,1.68,3.18,3.18,0,0,1-2,.4,3.16,3.16,0,0,1,1.14-1.67A3.12,3.12,0,0,1,355.35,263.47Z" style="fill:#fff"></path><path d="M335,263.47a3.12,3.12,0,0,0,1.13,1.68,3.15,3.15,0,0,0,2,.4,2.68,2.68,0,0,0-3.11-2.08Z" style="fill:#fff"></path><path d="M351.07,259.26a2.67,2.67,0,0,1-2.24,3,2.69,2.69,0,0,1,2.24-3Z" style="fill:#fff"></path><path d="M350.11,242.45a2.69,2.69,0,0,1-2.24,3,2.69,2.69,0,0,1,2.24-3Z" style="fill:#fff"></path><path d="M347.9,246.77a2.69,2.69,0,0,1-2.24,3,2.69,2.69,0,0,1,2.24-3Z" style="fill:#fff"></path><path d="M353.14,243.63a2.66,2.66,0,0,1-2.23,3,2.66,2.66,0,0,1,2.23-3Z" style="fill:#fff"></path><path d="M336.1,243.63a2.66,2.66,0,0,0,2.24,3,2.68,2.68,0,0,0-2.24-3Z" style="fill:#fff"></path><path d="M350.59,237.17a3.15,3.15,0,0,1-.51,2,3.09,3.09,0,0,1-1.73,1,3.15,3.15,0,0,1,.51-2A3.09,3.09,0,0,1,350.59,237.17Z" style="fill:#fff"></path><path d="M349.5,231.55a3.14,3.14,0,0,1,0,2,3.1,3.1,0,0,1-1.42,1.44,2.69,2.69,0,0,1,1.41-3.47Z" style="fill:#fff"></path><path d="M341.72,230.09a3.09,3.09,0,0,1,1.36,1.5,3.16,3.16,0,0,1-.08,2,2.67,2.67,0,0,1-1.28-3.52Z" style="fill:#fff"></path><path d="M345.35,236.8a2.67,2.67,0,0,1-.21,3.74,2.67,2.67,0,0,1,.21-3.74Z" style="fill:#fff"></path><path d="M345.16,226.81a3.12,3.12,0,0,1,.66,1.91,3.16,3.16,0,0,1-.88,1.83,3.15,3.15,0,0,1-.65-1.92A3.07,3.07,0,0,1,345.16,226.81Z" style="fill:#fff"></path><path d="M337,248.12a2.68,2.68,0,0,0,2.24,3,2.66,2.66,0,0,0-2.24-3Z" style="fill:#fff"></path><path d="M334.9,254.27a3.18,3.18,0,0,0,.5,2,3.13,3.13,0,0,0,1.74,1,3.15,3.15,0,0,0-.51-2A3.09,3.09,0,0,0,334.9,254.27Z" style="fill:#fff"></path><path d="M340.51,256.5a2.69,2.69,0,0,0,2.24,3,2.66,2.66,0,0,0-2.24-3Z" style="fill:#fff"></path><path d="M342.05,248a3.09,3.09,0,0,0-.08,2,3.14,3.14,0,0,0,1.36,1.5,3.16,3.16,0,0,0,.08-2A3.19,3.19,0,0,0,342.05,248Z" style="fill:#fff"></path><path d="M338.07,270.65a2.67,2.67,0,0,0,2.81-2.48,3.13,3.13,0,0,0-1.91.67A3.18,3.18,0,0,0,338.07,270.65Z" style="fill:#fff"></path><path d="M349,269.41a2.67,2.67,0,0,0,3.19,2,2.69,2.69,0,0,0-3.19-2Z" style="fill:#fff"></path><path d="M339.34,242.45a2.67,2.67,0,0,0,2.24,3,2.69,2.69,0,0,0-2.24-3Z" style="fill:#fff"></path><path d="M339.32,237.45a2.67,2.67,0,0,0,2.24,3,2.69,2.69,0,0,0-2.24-3Z" style="fill:#fff"></path></g><g id="freepik--Floor--inject-3"><path d="M445.93,212.46,415.26,228l-5.53,15.08-2.51,10.56-28.15,20.11-2,6,1.51,4.53-15.08,5-29.66,3.52-26.65,9.05L298.63,311,288.07,331.6,274,345.18l-39.71,4.52-69.38-6-54.29,11.06-12.07,10L88,376.85s-44.74,11.56-46.25,13.07c0,0-.06.05-.08.07a166.91,166.91,0,0,0,50.76,48.15,180.13,180.13,0,0,0,21.8,11.41,210.23,210.23,0,0,0,47.7,14.31c112,20.15,126.94-34.47,192.61-46.7,43.46-8.09,79.18-50.2,99.33-90.81,16.66-33.6,26.54-74.58,26.79-114.74Z" style="fill:#a8a8a8"></path><polygon points="379.23 290.07 325.12 298.95 333.57 307.83 385.15 319.66 396.14 308.67 379.23 290.07" style="fill:#c9c9c9"></polygon><polygon points="274.8 352.22 249.01 350.95 212.65 356.45 235.48 362.37 287.06 367.44 274.8 352.22" style="fill:#c9c9c9"></polygon><polygon points="448.15 216.08 445.66 217.4 420.24 230.88 439.69 243.56 473.94 238.07 466.75 222.84 448.15 216.08" style="fill:#c9c9c9"></polygon><polygon points="408.83 260.05 383.04 276.12 391.07 281.19 422.78 287.11 414.32 274.85 408.83 260.05" style="fill:#c9c9c9"></polygon><polygon points="368.66 338.69 375.85 353.49 373.31 358.14 377.12 362.37 394.88 353.49 432.93 349.68 421.93 339.54 368.66 338.69" style="fill:#c9c9c9"></polygon><polygon points="158.96 347.99 113.72 359.41 142.89 367.86 170.8 367.02 169.95 351.37 158.96 347.99" style="fill:#c9c9c9"></polygon><path d="M71.86,388.16l-25,9a165.93,165.93,0,0,0,26.89,27.72L90,411l-1.69-24.52Z" style="fill:#c9c9c9"></path><path d="M3.69,414.86a.51.51,0,0,1-.42-.23.49.49,0,0,1,.16-.69c10.15-6.37,36.74-23.17,38-24.37,1.52-1.52,38.5-11.14,46.33-13.16l10.45-12,12.13-10.11a.46.46,0,0,1,.22-.11l54.29-11.06h.14l69.38,6,39.45-4.51,13.89-13.4,10.52-20.54a.48.48,0,0,1,.09-.11l8.54-9a.63.63,0,0,1,.2-.13l26.65-9.05.1,0,29.61-3.52L377.93,284l-1.35-4a.58.58,0,0,1,0-.32l2-6a.51.51,0,0,1,.18-.25l28-20L409.25,243l5.54-15.14a.47.47,0,0,1,.25-.27L445.7,212a.54.54,0,0,1,.22,0l41.22-1a.5.5,0,0,1,0,1l-41.11,1-30.4,15.45-5.46,14.9-2.49,10.5a.53.53,0,0,1-.2.29l-28,20-1.91,5.72,1.46,4.37a.5.5,0,0,1,0,.38.48.48,0,0,1-.29.25l-15.08,5-.1,0-29.61,3.51-26.48,9-8.41,8.9-10.52,20.55a.45.45,0,0,1-.1.13l-14.08,13.58a.51.51,0,0,1-.29.13l-39.71,4.53-69.41-6-54.1,11-12,10-10.5,12a.44.44,0,0,1-.25.15c-17.75,4.59-44.66,11.83-46,12.95C40.55,391.81,5.45,413.85,4,414.78A.43.43,0,0,1,3.69,414.86Z" style="fill:#263238"></path><path d="M448.48,408.57l11.12-14.68,26.68,2.5V321.71c-23.19-.16-30.11-.35-31.78-.35-2,0,7.65-5.56,31.78-9.3V239.54l-43.21,9.05s-3,8.42-3,10.22,16.84-3,16.84-3L456.3,266l-10.22,4.81s-13.84,6.62-13.24,10.83S428,292.49,428,292.49l-7.82,4.81-6.61-3L404,287.08l-20.45-1.8L398,293.7l6.62,12.63,16.84,4.81-21.65,14.43-66.76-9-19.85,4.21L307.75,337l10.83,7.82-5.42,8.42-9.62,3.6-9,8.42s-2.41,5.42-4.21,6-43.3-1.81-43.3-1.81l-12,15.64-72.77-13.23-18.05,10.83,18.65,10.82L143,397.74l-6.61,11.43L100.86,426l7.22,14.43-31.49-12L31.17,450.84,153.94,490l88.73-6.62,107.18-24.29,69.08-32-6.21-5.44,11.43-9ZM149,432.62l-16.24-9,12.63-13.23L168.82,414Zm84.8.6-39.1-2.4,11.43-10.23h24.06l7.21,4.82,30.07-10.23ZM292.71,408l-12-4.21,19.84-11.43Zm-51.12,7.21c-1.8-.6-28.86-2.4-28.86-2.4l-3-8.42,39.09-16.84,52.32-3S243.4,415.78,241.59,415.18Zm125.1-79.38,64.95-3,9.6,14.47-5.59,9.11L404,359.85l19.52,3.33-6,9.76-40.6-5.27-20.45-16.84Zm-4.21,48.11-15.64,4.81L330,383.91v-7.82l21.05-20.45,10.83,9,10.22,7.82,27.67,4.81Z" style="fill:#263238"></path><path d="M153.94,490.5l-.15,0L31,451.32a.51.51,0,0,1-.34-.44.49.49,0,0,1,.27-.49L76.36,428a.51.51,0,0,1,.4,0l30.3,11.52-6.64-13.29a.53.53,0,0,1,0-.39.48.48,0,0,1,.26-.28L136,408.78l6.54-11.29a.51.51,0,0,1,.33-.24l18.57-3.94-17.52-10.17a.53.53,0,0,1-.25-.43.5.5,0,0,1,.25-.43l18-10.83a.53.53,0,0,1,.35-.06l72.47,13.17,11.84-15.39A.48.48,0,0,1,247,369c16.54.95,41.67,2.23,43.11,1.82,1.16-.38,3-3.72,3.91-5.74a.61.61,0,0,1,.12-.16l9-8.42a.39.39,0,0,1,.16-.1l9.47-3.55,5.07-7.89-10.44-7.54a.48.48,0,0,1-.18-.56l5.41-16.24a.51.51,0,0,1,.37-.33l19.85-4.21h.17l66.57,9,20.59-13.73-15.8-4.51a.55.55,0,0,1-.31-.25l-6.54-12.5-14.31-8.35a.5.5,0,0,1-.23-.59.51.51,0,0,1,.52-.34l20.45,1.8a.52.52,0,0,1,.26.1l9.58,7.19,6.32,2.87,7.52-4.63c.54-.68,5.18-6.64,4.65-10.37-.64-4.45,12.06-10.66,13.51-11.35l10-4.68.54-9.23c-4.24,1.2-15,4.07-16.48,2.95a.74.74,0,0,1-.32-.62c0-1.83,2.73-9.52,3-10.39a.52.52,0,0,1,.37-.32l43.21-9a.46.46,0,0,1,.41.1.48.48,0,0,1,.19.39v72.52a.51.51,0,0,1-.43.5c-18.26,2.83-28.17,6.73-30.9,8.31l1.7,0c3.92.06,12.09.19,29.13.31a.51.51,0,0,1,.5.5v74.68a.49.49,0,0,1-.16.37.52.52,0,0,1-.39.13l-26.4-2.47-10.95,14.45a.51.51,0,0,1-.32.19l-24.2,4.06-10.86,8.57,5.76,5.05a.49.49,0,0,1,.16.44.5.5,0,0,1-.28.39l-69.08,32-.1,0-107.18,24.3L154,490.5ZM32.5,450.74,154,489.49l88.64-6.61,107.05-24.27L418,427,412.39,422a.52.52,0,0,1-.17-.39.56.56,0,0,1,.19-.38l11.43-9a.6.6,0,0,1,.23-.1l24.13-4,11-14.52a.52.52,0,0,1,.45-.19l26.13,2.45V322.21c-16.71-.12-24.76-.25-28.65-.31l-2.63,0c-.68,0-.75-.47-.76-.57-.12-1.62,11.93-6.5,32-9.66V240.15L443.45,249c-.86,2.43-2.76,8.07-2.88,9.65,1.27.44,9.11-1.32,16.19-3.34a.5.5,0,0,1,.64.51l-.6,10.22a.48.48,0,0,1-.29.42l-10.22,4.81c-3.75,1.8-13.4,7.15-13,10.31.62,4.37-4.69,10.93-4.92,11.21a.69.69,0,0,1-.13.11l-7.81,4.81a.49.49,0,0,1-.47,0l-6.62-3-.09-.05-9.51-7.13L385.71,286l12.5,7.29a.64.64,0,0,1,.2.2l6.51,12.44,16.64,4.76a.5.5,0,0,1,.14.89L400,326a.57.57,0,0,1-.34.08l-66.67-9-19.48,4.13-5.21,15.62,10.53,7.6a.51.51,0,0,1,.13.68l-5.42,8.42a.41.41,0,0,1-.24.19l-9.53,3.58-8.88,8.28c-.4.89-2.59,5.57-4.46,6.19s-37.89-1.45-43.23-1.76l-11.86,15.43a.54.54,0,0,1-.49.18L162.3,372.41,145.15,382.7l17.91,10.4a.5.5,0,0,1-.15.92l-19.63,4.16-6.5,11.24a.47.47,0,0,1-.22.2l-35,16.62,7,14a.51.51,0,0,1-.08.56.51.51,0,0,1-.55.13L76.61,429Zm416-42.17h0Zm-214.7,25.15h0l-39.1-2.4a.52.52,0,0,1-.44-.34.5.5,0,0,1,.14-.53l11.43-10.23a.51.51,0,0,1,.33-.13h24.06a.44.44,0,0,1,.27.09l7,4.67,29.83-10.14a.5.5,0,0,1,.62.27.49.49,0,0,1-.22.64L234,433.67A.59.59,0,0,1,233.78,433.72Zm-37.87-3.33,37.76,2.33,28.19-15.11-24.31,8.27a.49.49,0,0,1-.44-.06L230,421.09H206.3ZM149,433.12a.54.54,0,0,1-.25-.06l-16.23-9a.53.53,0,0,1-.26-.36.5.5,0,0,1,.14-.42L145,410a.47.47,0,0,1,.43-.15l23.46,3.61a.48.48,0,0,1,.4.34.51.51,0,0,1-.13.51L149.32,433A.5.5,0,0,1,149,433.12Zm-15.43-9.64L148.9,432l18.83-17.69-22.18-3.41Zm108-7.81h-.09c-1.28-.43-17.89-1.66-28.75-2.38a.5.5,0,0,1-.43-.34l-3-8.42a.49.49,0,0,1,.27-.62l39.09-16.84a.35.35,0,0,1,.17,0l52.33-3a.5.5,0,0,1,.26.94C284.19,394.25,244.35,415.67,241.53,415.67Zm-28.44-3.37c3.93.26,26.41,1.79,28.6,2.39,2.36-.24,34.73-17.39,57.23-29.55l-50,2.87-38.58,16.62Zm79.62-3.84a.44.44,0,0,1-.16,0l-12-4.21a.51.51,0,0,1-.33-.43.5.5,0,0,1,.25-.48l19.84-11.43a.52.52,0,0,1,.6.07.5.5,0,0,1,.1.59l-7.82,15.64A.49.49,0,0,1,292.71,408.46Zm-10.83-4.82,10.58,3.71,6.88-13.76Zm65-14.42-.14,0-16.84-4.81a.5.5,0,0,1-.36-.48v-7.82a.55.55,0,0,1,.15-.36l21.05-20.45a.49.49,0,0,1,.67,0l10.83,9L372.31,372l27.54,4.79a.5.5,0,0,1,.42.49.51.51,0,0,1-.42.5L362.6,384.4,347,389.2Zm-16.34-5.69,16.34,4.67,15.49-4.77h.06l34.49-6.12L372,373a.43.43,0,0,1-.22-.09l-10.23-7.82-10.49-8.75-20.58,20Zm87-10.09h-.06l-40.6-5.26a.57.57,0,0,1-.25-.11l-20.45-16.84a.51.51,0,0,1-.1-.67l10.23-15a.46.46,0,0,1,.39-.21l64.95-3a.5.5,0,0,1,.44.22l9.6,14.48a.51.51,0,0,1,0,.53l-5.59,9.11a.52.52,0,0,1-.37.24L407.58,360l16,2.73a.48.48,0,0,1,.38.28.55.55,0,0,1,0,.47l-6,9.76A.51.51,0,0,1,417.51,373.44Zm-40.39-6.25,40.13,5.21,5.44-8.85-18.8-3.21a.49.49,0,0,1-.41-.5.5.5,0,0,1,.44-.49l31.43-3.45,5.3-8.63-9.27-14-64.42,3-9.83,14.45Z" style="fill:#263238"></path></g><g id="freepik--Plants--inject-3"><path d="M17.89,359.64a13.46,13.46,0,0,0,3.9.43s-.6-1.81-.65-1.92c-.61-1.27-2.52-3.36-4.08-3.15a1.87,1.87,0,0,0-1.5,2.34A3.9,3.9,0,0,0,17.89,359.64Z" style="fill:#263238"></path><path d="M18.84,367.65a12.88,12.88,0,0,0,3.84-.61,32.21,32.21,0,0,0,1.5,4.14c.33.79.7,1.57,1.08,2.35-.23-.33-.43-.63-.46-.66-.92-1.07-3.33-2.58-4.78-2a1.85,1.85,0,0,0-.82,2.64,3.87,3.87,0,0,0,2.85,1.61,12.4,12.4,0,0,0,3.73-.57l.44.89c.72,1.42,1.44,2.84,2.1,4.25.23.5.44,1,.66,1.49-.2-.29-.37-.54-.4-.57-.92-1.06-3.33-2.58-4.77-2a1.86,1.86,0,0,0-.83,2.65,3.91,3.91,0,0,0,2.86,1.6,11.89,11.89,0,0,0,3.62-.54c.21.51.41,1,.59,1.54.11.35.24.68.33,1s.2.7.29,1c.16.67.33,1.36.48,2,.1.46.19.9.28,1.34-.23-.5-.7-1.46-.74-1.54-.75-1.19-2.9-3.05-4.42-2.66a1.87,1.87,0,0,0-1.22,2.49,3.84,3.84,0,0,0,2.58,2,12.77,12.77,0,0,0,3.86,0c.15.74.28,1.45.4,2.12.26,1.49.46,2.83.61,4h1c-.18-1.17-.41-2.57-.72-4.13-.15-.74-.32-1.53-.5-2.34a23,23,0,0,0,2.15-1,13.29,13.29,0,0,0,3.14,2c-.28.69-.56,1.36-.84,2a13.64,13.64,0,0,1-.76,1.45l1.09-.18c.42-.91.06.24.53-.91.29-.7.58-1.46.88-2.23a12.75,12.75,0,0,0,3.85.29,3.9,3.9,0,0,0,2.72-1.82,1.85,1.85,0,0,0-1-2.57c-1.49-.51-3.77,1.19-4.6,2.32,0,.07-.51.85-.78,1.35l.35-.95c.24-.65.46-1.31.7-2,.1-.35.2-.69.31-1s.18-.73.28-1.1c.2-.85.37-1.72.51-2.6a12.3,12.3,0,0,0,3.66.83,3.84,3.84,0,0,0,3-1.39,1.85,1.85,0,0,0-.62-2.7c-1.4-.72-3.91.61-4.91,1.6l-1,1.3c.09-.53.17-1.06.24-1.6.2-1.56.34-3.15.5-4.73,0-.49.1-1,.15-1.45a12.94,12.94,0,0,0,3.77.88,3.88,3.88,0,0,0,3-1.39,1.86,1.86,0,0,0-.62-2.7c-1.4-.72-3.91.61-4.91,1.6-.07.08-1,1.22-1.2,1.52.11-1.06.23-2.12.39-3.16a33.64,33.64,0,0,1,.91-4.16,13.15,13.15,0,0,0,3.8.89,3.89,3.89,0,0,0,3-1.39,1.86,1.86,0,0,0-.63-2.7c-1.4-.72-3.91.61-4.9,1.6-.08.08-1.06,1.31-1.22,1.54a2.1,2.1,0,0,1,.06-.24,23.65,23.65,0,0,1,1.65-3.93c.35-.71.74-1.36,1.12-2a12.82,12.82,0,0,0,3.6,1.27,3.9,3.9,0,0,0,3.1-1.06,1.86,1.86,0,0,0-.33-2.75c-1.31-.87-4,.17-5.05,1.05-.06.05-.61.6-1,1l.53-.84c.66-1,1.33-1.86,1.92-2.62q.51-.64,1-1.17a12.47,12.47,0,0,0,3.76-.54,3.88,3.88,0,0,0,2.26-2.36,1.86,1.86,0,0,0-1.55-2.3c-1.57-.17-3.43,2-4,3.26-.05.11-.62,1.94-.6,1.94h0l-.95,1.1c-.61.76-1.29,1.61-2,2.59a34.89,34.89,0,0,0-2,3.27,24.08,24.08,0,0,0-1.75,3.95s0,0,0,.05c0-.46,0-1.75,0-1.85-.18-1.39-1.35-4-2.9-4.27A1.87,1.87,0,0,0,37.72,362a3.9,3.9,0,0,0,1.49,2.91,13.16,13.16,0,0,0,3.53,1.62,33.69,33.69,0,0,0-1,4.27c-.15.85-.28,1.7-.39,2.56,0-.4,0-.76,0-.81-.18-1.39-1.35-4-2.9-4.27a1.87,1.87,0,0,0-2.15,1.75,3.88,3.88,0,0,0,1.5,2.92,12.41,12.41,0,0,0,3.42,1.58l-.12,1c-.19,1.58-.37,3.16-.6,4.7-.08.54-.18,1.07-.27,1.61,0-.36,0-.66,0-.7-.18-1.4-1.35-4-2.9-4.27a1.87,1.87,0,0,0-2.15,1.75,3.88,3.88,0,0,0,1.5,2.92,12.11,12.11,0,0,0,3.32,1.55c-.11.54-.23,1.08-.36,1.6-.1.36-.18.7-.3,1.05l-.33,1c-.24.65-.48,1.32-.72,1.95-.17.44-.34.85-.51,1.27.09-.54.23-1.6.23-1.69a7.27,7.27,0,0,0-1-3.52,1.92,1.92,0,0,0-2.3-2c-1.52.4-2.49,3.07-2.56,4.48,0,.08,0,1,.09,1.55-.07-.33-.14-.65-.23-1-.16-.67-.34-1.34-.53-2.06-.1-.34-.2-.69-.31-1s-.25-.71-.37-1.06c-.3-.83-.64-1.65-1-2.46a12.32,12.32,0,0,0,3.51-1.32A3.89,3.89,0,0,0,35,377.13a1.87,1.87,0,0,0-2-1.91c-1.57.17-2.93,2.66-3.21,4,0,.08-.11,1.1-.15,1.65-.23-.49-.45-1-.69-1.47-.7-1.4-1.45-2.81-2.2-4.21l-.67-1.3a12.66,12.66,0,0,0,3.64-1.34,3.91,3.91,0,0,0,1.71-2.8,1.87,1.87,0,0,0-2-1.91c-1.57.17-2.93,2.67-3.21,4.05,0,.1-.16,1.55-.17,1.93-.49-.95-1-1.9-1.41-2.86a32.44,32.44,0,0,1-1.54-4,13,13,0,0,0,3.66-1.35,3.91,3.91,0,0,0,1.71-2.8,1.86,1.86,0,0,0-2-1.9c-1.57.17-2.93,2.66-3.21,4,0,.1-.16,1.67-.17,2,0-.08-.06-.16-.08-.24a24.28,24.28,0,0,1-.8-4.19c-.09-.78-.13-1.54-.15-2.27a12.45,12.45,0,0,0,3.7-.93,3.87,3.87,0,0,0,2-2.59,1.86,1.86,0,0,0-1.79-2.12c-1.57,0-3.19,2.33-3.63,3.67,0,.07-.18.83-.29,1.39,0-.33,0-.67,0-1,0-1.19.07-2.28.15-3.24.05-.55.1-1,.15-1.51a12.29,12.29,0,0,0,2.84-2.52,3.87,3.87,0,0,0,.59-3.22,1.87,1.87,0,0,0-2.57-1.05c-1.4.72-1.76,3.54-1.53,4.92,0,.12.54,2,.57,1.94h0q-.11.66-.18,1.44c-.1,1-.2,2.06-.23,3.25a31.94,31.94,0,0,0,.1,3.86,24.59,24.59,0,0,0,.71,4.26s0,0,0,.05c-.25-.39-1-1.45-1-1.53-.92-1.06-3.33-2.57-4.78-2A1.86,1.86,0,0,0,16,366,3.93,3.93,0,0,0,18.84,367.65Z" style="fill:#263238"></path><path d="M45.85,360.25s.5-1.84.52-2c.19-1.39-.25-4.2-1.67-4.88a1.86,1.86,0,0,0-2.54,1.12,3.87,3.87,0,0,0,.68,3.21A13.51,13.51,0,0,0,45.85,360.25Z" style="fill:#263238"></path><path d="M393.68,236.75a7.64,7.64,0,0,0,2.23.24s-.34-1-.37-1.09c-.35-.73-1.44-1.92-2.33-1.8a1.07,1.07,0,0,0-.86,1.33A2.23,2.23,0,0,0,393.68,236.75Z" style="fill:#263238"></path><path d="M394.23,241.32a7.42,7.42,0,0,0,2.19-.35,18.73,18.73,0,0,0,.85,2.37c.19.44.4.89.62,1.33l-.27-.37c-.52-.61-1.89-1.47-2.72-1.12a1.06,1.06,0,0,0-.47,1.51,2.21,2.21,0,0,0,1.63.91,7,7,0,0,0,2.13-.32c.08.17.16.34.25.51.41.81.82,1.62,1.19,2.42.14.29.26.57.38.85l-.23-.32c-.52-.61-1.89-1.47-2.72-1.12a1.06,1.06,0,0,0-.47,1.51,2.2,2.2,0,0,0,1.63.92,7.1,7.1,0,0,0,2.07-.31c.11.29.23.59.33.88s.14.38.19.59.11.4.17.6c.09.38.19.78.27,1.15s.11.51.16.77c-.13-.29-.4-.84-.43-.88-.42-.68-1.65-1.74-2.52-1.52a1.05,1.05,0,0,0-.69,1.42,2.24,2.24,0,0,0,1.47,1.16,7.46,7.46,0,0,0,2.2,0c.09.42.16.82.23,1.21.15.85.26,1.61.35,2.25h.59c-.1-.66-.24-1.46-.42-2.35-.08-.42-.18-.87-.28-1.34a11,11,0,0,0,1.23-.58,7.69,7.69,0,0,0,1.79,1.16c-.16.39-.32.78-.48,1.13a6.62,6.62,0,0,1-.43.83l.62-.1c.24-.52,0,.14.3-.52.17-.4.34-.83.5-1.27a7.74,7.74,0,0,0,2.2.17,2.24,2.24,0,0,0,1.55-1,1.06,1.06,0,0,0-.58-1.47c-.85-.29-2.15.68-2.63,1.32,0,0-.29.49-.45.77.07-.18.14-.35.21-.54.13-.37.26-.74.39-1.15l.18-.59c.06-.2.11-.42.16-.62.12-.49.21-1,.29-1.49a7.08,7.08,0,0,0,2.09.48,2.24,2.24,0,0,0,1.69-.8,1.06,1.06,0,0,0-.35-1.54c-.8-.41-2.24.35-2.8.91l-.6.74c0-.3.1-.6.14-.91.11-.89.19-1.8.28-2.7l.09-.83a7,7,0,0,0,2.15.51,2.21,2.21,0,0,0,1.7-.8,1.06,1.06,0,0,0-.36-1.54c-.8-.41-2.23.35-2.8.92l-.69.86c.07-.6.14-1.21.23-1.8a19.65,19.65,0,0,1,.52-2.38,7.44,7.44,0,0,0,2.16.51,2.23,2.23,0,0,0,1.7-.79,1.06,1.06,0,0,0-.36-1.54c-.8-.41-2.23.35-2.8.91,0,.05-.6.75-.69.88l0-.14a14.62,14.62,0,0,1,.94-2.24c.21-.4.42-.77.64-1.13a7,7,0,0,0,2.06.72,2.21,2.21,0,0,0,1.77-.6,1.06,1.06,0,0,0-.19-1.57c-.75-.5-2.25.1-2.88.6l-.58.57c.1-.15.2-.32.31-.47.37-.57.75-1.06,1.09-1.5l.55-.67a7,7,0,0,0,2.14-.3,2.23,2.23,0,0,0,1.29-1.35,1.06,1.06,0,0,0-.88-1.31c-.9-.1-2,1.13-2.29,1.86,0,.06-.35,1.1-.34,1.1h0l-.54.64c-.35.42-.74.91-1.13,1.47a18.87,18.87,0,0,0-1.17,1.87,14.44,14.44,0,0,0-1,2.25v0c0-.26,0-1,0-1-.1-.8-.77-2.28-1.66-2.44a1.06,1.06,0,0,0-1.22,1,2.24,2.24,0,0,0,.85,1.66,7.38,7.38,0,0,0,2,.92,18.65,18.65,0,0,0-.59,2.45c-.09.48-.16,1-.23,1.45a4.4,4.4,0,0,0,0-.46c-.1-.79-.77-2.27-1.65-2.43a1.06,1.06,0,0,0-1.23,1,2.24,2.24,0,0,0,.85,1.66,6.93,6.93,0,0,0,2,.9c0,.19-.05.38-.07.57-.11.9-.21,1.8-.34,2.68-.05.31-.1.61-.16.92,0-.21,0-.38,0-.4-.1-.8-.77-2.27-1.65-2.44a1.06,1.06,0,0,0-1.23,1,2.26,2.26,0,0,0,.85,1.67,7.09,7.09,0,0,0,1.9.88c-.06.31-.13.62-.21.92s-.1.4-.16.6-.13.39-.19.59c-.14.37-.28.75-.42,1.11s-.19.49-.29.73c.05-.31.14-.92.14-1a4.15,4.15,0,0,0-.56-2,.87.87,0,0,0,0-.23,1.07,1.07,0,0,0-1.3-.91c-.87.24-1.42,1.76-1.46,2.56,0,.05,0,.56.05.89,0-.19-.08-.37-.13-.57-.09-.38-.19-.76-.3-1.17l-.18-.6c-.06-.2-.14-.4-.21-.6-.17-.47-.37-.94-.58-1.41a6.73,6.73,0,0,0,2-.75,2.22,2.22,0,0,0,1-1.59,1.07,1.07,0,0,0-1.15-1.09c-.89.09-1.67,1.52-1.83,2.3,0,.05-.06.63-.09.95q-.18-.42-.39-.84c-.4-.8-.83-1.61-1.25-2.41l-.39-.73a7.47,7.47,0,0,0,2.08-.77,2.24,2.24,0,0,0,1-1.6,1.07,1.07,0,0,0-1.15-1.09c-.9.1-1.67,1.52-1.83,2.31,0,.06-.09.89-.1,1.1-.28-.54-.56-1.08-.81-1.63a19.06,19.06,0,0,1-.87-2.26,8,8,0,0,0,2.09-.78,2.2,2.2,0,0,0,1-1.59,1.06,1.06,0,0,0-1.15-1.09c-.89.1-1.67,1.52-1.83,2.31,0,.06-.09,1-.09,1.11a.69.69,0,0,1-.05-.13,14.15,14.15,0,0,1-.46-2.39c-.05-.45-.07-.88-.08-1.3a6.89,6.89,0,0,0,2.11-.53,2.21,2.21,0,0,0,1.14-1.48,1.05,1.05,0,0,0-1-1.2c-.9,0-1.82,1.32-2.07,2.09,0,0-.11.47-.17.79,0-.18,0-.38,0-.56,0-.68.05-1.3.09-1.85,0-.32.06-.6.09-.86a7,7,0,0,0,1.62-1.44,2.2,2.2,0,0,0,.33-1.84,1.05,1.05,0,0,0-1.46-.6c-.8.41-1,2-.88,2.81,0,.07.32,1.12.33,1.11h0c0,.25-.07.52-.11.82-.05.55-.11,1.18-.12,1.86a18.4,18.4,0,0,0,.05,2.2,13.57,13.57,0,0,0,.41,2.43v0c-.15-.22-.56-.83-.6-.87-.52-.61-1.89-1.47-2.72-1.12a1.06,1.06,0,0,0-.47,1.51A2.2,2.2,0,0,0,394.23,241.32Z" style="fill:#263238"></path><path d="M409.64,237.09s.28-1,.29-1.11c.11-.8-.14-2.4-.95-2.79a1.07,1.07,0,0,0-1.45.64,2.23,2.23,0,0,0,.39,1.83A7.56,7.56,0,0,0,409.64,237.09Z" style="fill:#263238"></path><path d="M76.65,357a7.75,7.75,0,0,0,2.23.25s-.34-1-.37-1.1c-.35-.72-1.44-1.92-2.34-1.8a1.07,1.07,0,0,0-.85,1.34A2.24,2.24,0,0,0,76.65,357Z" style="fill:#263238"></path><path d="M77.2,361.55a7.41,7.41,0,0,0,2.18-.34,20.37,20.37,0,0,0,.86,2.36c.19.45.4.89.62,1.34l-.27-.38c-.52-.61-1.89-1.47-2.72-1.12a1.06,1.06,0,0,0-.47,1.51,2.22,2.22,0,0,0,1.63.92,7,7,0,0,0,2.13-.33c.08.17.16.34.25.51.4.81.82,1.62,1.19,2.43.14.28.26.56.38.85-.11-.17-.21-.31-.23-.33-.52-.61-1.9-1.47-2.72-1.12a1.06,1.06,0,0,0-.47,1.51,2.2,2.2,0,0,0,1.63.92,6.78,6.78,0,0,0,2.07-.31c.11.29.23.59.33.88s.14.39.19.59.11.4.17.6c.09.38.19.78.27,1.16s.1.51.16.76c-.13-.28-.4-.83-.43-.88-.42-.68-1.65-1.74-2.52-1.52a1.06,1.06,0,0,0-.69,1.43,2.23,2.23,0,0,0,1.47,1.15,7.13,7.13,0,0,0,2.2,0c.09.42.16.83.23,1.21.15.85.26,1.61.35,2.26h.59c-.1-.67-.24-1.46-.42-2.36-.08-.42-.18-.87-.28-1.33.1-.05.7-.29,1.23-.58a7.57,7.57,0,0,0,1.79,1.15q-.24.6-.48,1.14a7.43,7.43,0,0,1-.43.83l.62-.1c.24-.52,0,.13.3-.52.17-.4.33-.84.5-1.28a7,7,0,0,0,2.2.17,2.21,2.21,0,0,0,1.55-1,1.06,1.06,0,0,0-.58-1.47c-.85-.29-2.16.68-2.63,1.33,0,0-.29.48-.45.77l.21-.55c.13-.37.26-.74.39-1.14l.18-.6c.06-.19.11-.41.16-.62.12-.49.21-1,.29-1.49a7.08,7.08,0,0,0,2.09.48,2.2,2.2,0,0,0,1.69-.79,1.06,1.06,0,0,0-.36-1.54c-.79-.42-2.23.34-2.79.91,0,0-.4.49-.6.74,0-.31.1-.61.14-.92.11-.89.19-1.79.28-2.7l.09-.82a7.37,7.37,0,0,0,2.15.5,2.23,2.23,0,0,0,1.7-.79,1.06,1.06,0,0,0-.36-1.54c-.8-.42-2.23.34-2.8.91,0,0-.56.69-.69.87.07-.61.14-1.22.23-1.81A17.77,17.77,0,0,1,91,361a7.35,7.35,0,0,0,2.16.51,2.23,2.23,0,0,0,1.7-.79,1.07,1.07,0,0,0-.36-1.55c-.8-.41-2.23.35-2.8.92,0,0-.6.74-.7.88a1,1,0,0,0,0-.14,14.33,14.33,0,0,1,.94-2.25c.2-.4.42-.77.64-1.12a7.61,7.61,0,0,0,2.06.72,2.25,2.25,0,0,0,1.77-.6,1.08,1.08,0,0,0-.19-1.58c-.75-.49-2.25.1-2.88.6l-.58.58c.1-.16.2-.33.3-.48.38-.56.76-1.06,1.1-1.49.19-.25.37-.47.55-.67a7.34,7.34,0,0,0,2.14-.31,2.21,2.21,0,0,0,1.29-1.35,1.06,1.06,0,0,0-.89-1.31c-.89-.09-2,1.13-2.28,1.86,0,.07-.35,1.11-.34,1.11h0l-.54.63c-.35.43-.74.92-1.13,1.48a18.68,18.68,0,0,0-1.17,1.86,14.15,14.15,0,0,0-1,2.26v0c0-.27,0-1,0-1.06-.11-.8-.77-2.27-1.66-2.44a1.06,1.06,0,0,0-1.22,1,2.21,2.21,0,0,0,.85,1.67,7.56,7.56,0,0,0,2,.92,18.9,18.9,0,0,0-.6,2.44c-.08.48-.15,1-.22,1.46,0-.23,0-.43,0-.46-.1-.8-.77-2.28-1.65-2.44a1.06,1.06,0,0,0-1.23,1A2.26,2.26,0,0,0,88,364.6a7.22,7.22,0,0,0,2,.9c0,.18,0,.37-.07.56-.11.9-.21,1.8-.34,2.68,0,.31-.1.62-.16.92,0-.2,0-.37,0-.4-.1-.79-.77-2.27-1.65-2.43a1.06,1.06,0,0,0-1.23,1,2.24,2.24,0,0,0,.85,1.66,6.79,6.79,0,0,0,1.9.88c-.06.31-.13.62-.21.92s-.1.4-.17.6-.12.4-.19.59c-.13.37-.27.76-.41,1.11s-.19.49-.29.73c.05-.31.13-.91.14-1a4.11,4.11,0,0,0-.56-2,1.93,1.93,0,0,0,0-.24,1.06,1.06,0,0,0-1.3-.9c-.87.23-1.42,1.75-1.46,2.56,0,0,0,.56,0,.88,0-.18-.08-.37-.13-.56-.09-.39-.2-.77-.3-1.18l-.18-.59c-.06-.2-.14-.4-.21-.61-.17-.47-.37-.94-.58-1.4a7,7,0,0,0,2-.75,2.24,2.24,0,0,0,1-1.6,1.07,1.07,0,0,0-1.15-1.09c-.89.1-1.67,1.52-1.83,2.31,0,.05-.06.62-.09.94q-.18-.42-.39-.84c-.4-.8-.83-1.6-1.25-2.4l-.39-.74a7.58,7.58,0,0,0,2.08-.77,2.2,2.2,0,0,0,1-1.59,1.05,1.05,0,0,0-1.14-1.09c-.9.09-1.67,1.52-1.83,2.3,0,.06-.09.89-.1,1.1-.28-.54-.56-1.08-.81-1.63a19.06,19.06,0,0,1-.87-2.26,7.38,7.38,0,0,0,2.08-.77,2.24,2.24,0,0,0,1-1.6,1.06,1.06,0,0,0-1.15-1.09c-.89.1-1.67,1.52-1.83,2.31,0,.06-.09.95-.1,1.12,0-.05,0-.09,0-.14a14.15,14.15,0,0,1-.46-2.39c0-.45-.07-.87-.08-1.29a7.52,7.52,0,0,0,2.11-.53,2.21,2.21,0,0,0,1.14-1.48,1.06,1.06,0,0,0-1-1.21c-.9,0-1.83,1.33-2.07,2.09,0,0-.11.48-.17.8,0-.19,0-.39,0-.57,0-.68,0-1.3.09-1.85,0-.31.06-.59.09-.86a7,7,0,0,0,1.62-1.44,2.2,2.2,0,0,0,.33-1.84,1.07,1.07,0,0,0-1.46-.6c-.8.42-1,2-.88,2.81,0,.07.32,1.12.33,1.11h0c0,.25-.07.53-.1.83-.05.55-.11,1.17-.12,1.85a18.61,18.61,0,0,0,0,2.21,13.57,13.57,0,0,0,.41,2.43v0c-.15-.22-.56-.83-.6-.87-.52-.6-1.9-1.47-2.72-1.12a1.06,1.06,0,0,0-.47,1.51A2.2,2.2,0,0,0,77.2,361.55Z" style="fill:#263238"></path><path d="M92.61,357.33s.28-1.05.29-1.12c.11-.79-.14-2.39-1-2.79a1.07,1.07,0,0,0-1.45.65,2.24,2.24,0,0,0,.39,1.83A7.56,7.56,0,0,0,92.61,357.33Z" style="fill:#263238"></path></g></svg>
