<svg xmlns="http://www.w3.org/2000/svg" viewBox="0 0 500 500"><g id="freepik--Earth--inject-31"><path d="M403.22,250A152.47,152.47,0,0,1,374,340.07v0A153.24,153.24,0,1,1,250,96.78q6.3,0,12.49.5a152.23,152.23,0,0,1,67,21.73,153.84,153.84,0,0,1,40.93,36.28A152.69,152.69,0,0,1,403.22,250Z" style="fill:#FFC727"></path><g style="opacity:0.1"><path d="M283.09,322.32c-1.93,5.15,1.28,5.36,1.5,7.51s0,6.22-6.22,12.45-16.53,4.93-18.67,7.51-5.8,13.52-10.95,17.16-6,1.51-13.3,3-12.88,10.94-15,15.45.43,12-4.72,12.23-7.51-10.94-12.23-16.95-6.22-11.37-7.72-18.46.85-21.89,0-27.68-16.31-16.09-21.89-23.18-13.31-21.24-12.88-26a19.18,19.18,0,0,1,6.44-11.8c2.57-1.94,1.5-3,1.93-4.73s2.58-2.14,3-4.29-1.28-8.58-3.43-9.65-3.65,2.57-4.93,1.93-5.15-5.15-6.66-5.58-1.07,2.79-3.22-1.29-3.21-14.38-4.93-16.09-3,3-7.08,0-5.8-8.8-7.51-9.66-4.08.21-5.85-3.22,1.55-9.66,0-9-4.88,5.58-5.74.85,4.29-20.6,3.43-29.18,2.15-17.6,8.16-24.89c0,0,.85-4.72,1.71-7.73s19.32-15,21.46-18.45c.9-1.44,1.2-3.69,1.52-6.11A152.51,152.51,0,0,1,250,96.78q6.3,0,12.49.5.21.3.42.57c1.86,2.36,3.87,3.86,9.31,5.87s6.72,4.57,5.57,6.72-3,2.57-5.15,2.72-4.15-1-6.43.43-4.58,9.15-7.59,9.58-8.29-6.86-9.44-9,2.58-6.72.82-8.87-4.82-1.72-9.69-2.15-16.16,1.44-15.74,3.3,16.6-.29,17,3.43-11.87,10-14,9.44-5-4.29-8.16-4.72-5.72,2.15-7.7,2.43-4.31-2.14-7.32-1.57-3.72,3.14-5.29,4.15-5.3,1-5.72,3.29,4.72,3.58,6,5-1.57,6.29-.28,7.29,9.3-6,11.3-7.72,3.72-9.16,8-9,5.73,7.44,7.15,8.16,4.58-1.72,9.31-.72,8,11.31,8.86,14.45,2.87,6.3,1.15,7.59-9.44-.86-10.44-2.87,5.15-5,4.72-5.72-4-1.72-5.87-.6-2.72,3.46-4.72,4-7.3-5.44-8.73-3.73,1.43,7.16,2.86,8.45,6.73,2,7.16,3.43-3.58,4.57-8.45,4.29-8.86-4-10.73-2.43-.85,5.72-2.14,7.15-8.3.43-11.73,4.15-5,9.3-8.44,12.45-5-.86-9.59,3.57-5.29,14.31-5.43,17.74,0,6.15-1.15,5.72-2.72-3.43-3.15-5.29,1-5,1-6.15-6.59-7-10.45-7.58-7.3,2.57-10.15,4.86-8,1.86-9.87,3.72-3.3,18.32-1.87,22.18,3.29,3.86,7.87,1.86,2-5.87,4.72-5a6.39,6.39,0,0,1,4.15,6c0,2.29-5.43,7.72-4.72,9.3s5.44-.29,7.73.43,3.43,2.14,2.72,8-.29,10.44,3.14,12.37,5.37-2.79,6.87-2.14,3.65,4.07,5.79,3.86,1.08-2.15,5.15-3.43,2.58-2.15,3.44-4.72,3.43-4.73,6.22-3.44.86,3.22,1.07,5.37,5.15,2.36,9,3.64,6,0,13.73,2.58,8.15,10.3,11.37,11.59,13.95-.86,21.68,4.72,5.58,15.88,9.44,18.88,18.24,7.09,23.82,8.16,6.44-2.79,10.94-1.72,7.09,2.36,8.59,8.59C301.79,305.69,285,317.17,283.09,322.32Z"></path><path d="M167.78,212.59c.14,1.21,3.72,1.72,8,4.15s5.86,9.58,8.15,9.44,1.58-3.43,2.44-4.29,2.28-2.72,0-4.58-4.52-5.87-8.7-6.44-4.9-2.29-6.76-2.14A3.23,3.23,0,0,0,167.78,212.59Z"></path><path d="M191.38,224.61c-.63,1.75,0,3,4.58,4.15s8.87-1.15,7.44-2.08-3.58-.5-2.72-2.07.57-3.87-3.15-3.44S192,223,191.38,224.61Z"></path><path d="M207.41,225.09c-1.57.23-2.44,2.95-.86,4.67s1.57,1.43,3.43,0,4.72-2.15,4-3.58S209,224.87,207.41,225.09Z"></path><path d="M219.85,230.94c.7-2.15,4.29,0,5.87,2.25s.86,5.58,0,8-1.43,5.29-3.44,4.15.15-4.58-.14-6.58S219.28,232.69,219.85,230.94Z"></path><path d="M281.51,111.59c-.75,1.79,2.72,2.43,4.72,3.57s3.58,1.86,4.72,0-.42-4-2-4.43S282.23,109.87,281.51,111.59Z"></path><path d="M308.55,128.32c1.32,1.4,3.58,1.15,5.15,3.15s1,5.44,3,6.44,3.43,0,3.57-1.43-2.86-5-2.57-5.72,4.15,1,5,3.14-.86,5.15,1.14,5.73,1.57-2,2.43-2.58,2.72-.28,2.58-2-2.44-5.44-4.29-6.73-3.3-2.71-6.44-3.43-6.15-.14-7.73,1.15S307.74,127.47,308.55,128.32Z"></path><path d="M370.45,155.29a2.55,2.55,0,0,1-.81,1.5c-3,2.15-6.58-5.29-10.73-6.72s-6-6.72-6.87-5.58-.57,2.72-1.86,4.58-3.14,1.43-4,5,4,10.15,2.86,12.3-2.57,1.43-4.87,1.29-1.86,1.86-4.86,1-.43-4.58-5.15-9-6.3-5.3-5.29-7.3-.43-4.86,1.71-5.15,3.87,2.86,5.3,3.72,3.29-1.72,3.43-4-5-5.43-6.87-7.21-2-8.24-1.28-9.53,2.86-.86,3.43-4c.33-1.85-2.59-4.94-5.07-7.17A153.84,153.84,0,0,1,370.45,155.29Z"></path><path d="M391.81,283.55c.43-4.58-1.85-4.87.43-13.31s-2.43-17.45-4.14-19.31-5.44-1.29-8.45.57-.85,3.29-2.86,4-4-.43-5.86-.29-3.58,4.87-7.58,4.72-6.58-5.86-9.59-9.94-9.16-6.65-11.16-11.66,1.86-12.73,1-18.6-4.72-4.58-5.44-7.87.58-1.71,1.58-4.86-1.15-4.86.86-10.3,5.58-8.16,4.72-10.59-3.58-6.43-3.72-9.29,2.72-2.72,8.15-6.73,6.87-3.72,11-2.29a58.38,58.38,0,0,0,9.15,2.57c2.44.43,5.73,6.73,6.73,6.44s1.15-2.14,1.58-4.86a6,6,0,0,1,1.78-3.08A153.31,153.31,0,0,1,374,340.07C388.55,317.8,391.38,288.13,391.81,283.55Z"></path></g><path d="M368.7,346.89A153.23,153.23,0,1,1,250,96.78q6.3,0,12.49.5c1.14.09,2.28.19,3.41.32A140.4,140.4,0,1,0,368.7,346.89Z" style="opacity:0.1"></path><path d="M403.22,250A152.47,152.47,0,0,1,374,340.07s0,0,0,0a154,154,0,0,1-55,46.78,154.81,154.81,0,0,0,48.33-43.29l0,0a154.18,154.18,0,0,0,6.08-172.18,151.44,151.44,0,0,0-9.62-13.68,154.88,154.88,0,0,0-41.15-36.49,153.2,153.2,0,0,0-67.44-21.85c-4.13-.34-8.33-.51-12.55-.51a154.1,154.1,0,0,0-37,4.48A153,153,0,0,1,250,96.78q6.3,0,12.49.5A153.17,153.17,0,0,1,403.22,250Z" style="fill:#fff;opacity:0.30000000000000004"></path><ellipse cx="164.94" cy="215.03" rx="9.76" ry="18.44" transform="translate(-80.03 330.92) rotate(-77.83)" style="fill:#ff9cbd"></ellipse><ellipse cx="335.06" cy="215.03" rx="18.44" ry="9.76" transform="translate(-37.81 75.48) rotate(-12.17)" style="fill:#ff9cbd"></ellipse><path d="M227.34,200.94c7,12.1,23,14.77,35.18,9.67a23.64,23.64,0,0,0,10.14-8.69c-1,4.71-4.42,8.81-8.66,11.47-12.52,7.59-33.39,3.26-36.66-12.45Z" style="fill:#263238"></path><path d="M209,162.92a38.22,38.22,0,0,0-27.72,6.67,41.94,41.94,0,0,0-7.43,6.7,16.57,16.57,0,0,1,2.08-4.86c6.45-10.7,22.35-15.69,33.07-8.51Z" style="fill:#263238"></path><path d="M291,162.92c10.72-7.18,26.62-2.19,33.07,8.51a16.57,16.57,0,0,1,2.08,4.86,41.94,41.94,0,0,0-7.43-6.7A38.22,38.22,0,0,0,291,162.92Z" style="fill:#263238"></path><path d="M284.65,199.21c7.75,4.51,17.89,5.71,25.63.82A27.59,27.59,0,0,0,318,192.4c3.23,4.28,9.09,5,14.11,4.27a14.58,14.58,0,0,1-13.22.71,9.87,9.87,0,0,1-1.89-1.15l2.54-.36a22.19,22.19,0,0,1-11.8,9.8c-8.05,2.6-17.73.16-23.08-6.46Z" style="fill:#263238"></path><path d="M215.35,199.21c-5.35,6.62-15,9.06-23.08,6.46a22.23,22.23,0,0,1-11.8-9.8l2.54.36a9.87,9.87,0,0,1-1.89,1.15,14.58,14.58,0,0,1-13.22-.71c5,.71,10.88,0,14.11-4.27l1.3,1.74c7.69,10.42,21.26,11.4,32,5.07Z" style="fill:#263238"></path></g><g id="freepik--Circle--inject-31"><polygon points="357.51 141.01 360.44 140.37 360.44 140.39 357.51 141.01" style="fill:#263238"></polygon><polygon points="366.3 139.17 372.19 138.06 372.2 138.15 366.31 139.22 366.3 139.17" style="fill:#263238"></polygon><polygon points="378.09 137.07 384.01 136.21 384.03 136.36 378.11 137.19 378.09 137.07" style="fill:#263238"></polygon><polygon points="389.96 135.48 395.92 134.91 395.94 135.13 389.98 135.67 389.96 135.48" style="fill:#263238"></polygon><polygon points="401.9 134.53 407.88 134.37 407.89 134.66 401.91 134.79 401.9 134.53" style="fill:#263238"></polygon><polygon points="413.88 134.46 419.86 134.88 419.82 135.24 413.86 134.78 413.88 134.46" style="fill:#263238"></polygon><path d="M425.8,135.71a55.83,55.83,0,0,1,5.85,1.38l-.12.4a56.92,56.92,0,0,0-5.8-1.39Z" style="fill:#263238"></path><path d="M437.28,139.2a26.9,26.9,0,0,1,5.16,3.13l-.31.39a26.36,26.36,0,0,0-5-3.1Z" style="fill:#263238"></path><path d="M446.56,146.75l.75,1.32a10.1,10.1,0,0,1,.69,1.35,16.19,16.19,0,0,1,.95,2.88l-.5.12a17,17,0,0,0-.92-2.8,10.77,10.77,0,0,0-.67-1.31l-.73-1.28Z" style="fill:#263238"></path><path d="M449.41,158.32a29.05,29.05,0,0,1-1.07,5.93l-.52-.15a28.11,28.11,0,0,0,1.05-5.82Z" style="fill:#263238"></path><polygon points="446.28 169.9 443.57 175.26 443.07 174.98 445.77 169.68 446.28 169.9" style="fill:#263238"></polygon><polygon points="440.4 180.37 436.92 185.25 436.44 184.89 439.92 180.04 440.4 180.37" style="fill:#263238"></polygon><polygon points="433.19 189.94 429.26 194.47 428.81 194.06 432.72 189.55 433.19 189.94" style="fill:#263238"></polygon><polygon points="425.19 198.86 420.98 203.12 420.53 202.67 424.74 198.42 425.19 198.86" style="fill:#263238"></polygon><polygon points="416.67 207.28 412.26 211.33 411.81 210.83 416.22 206.8 416.67 207.28" style="fill:#263238"></polygon><polygon points="407.77 215.29 403.2 219.16 402.76 218.64 407.32 214.78 407.77 215.29" style="fill:#263238"></polygon><polygon points="398.57 222.96 393.88 226.69 393.45 226.13 398.13 222.42 398.57 222.96" style="fill:#263238"></polygon><polygon points="389.14 230.34 384.36 233.94 383.92 233.34 388.71 229.77 389.14 230.34" style="fill:#263238"></polygon><polygon points="379.52 237.47 374.65 240.94 374.21 240.32 379.09 236.86 379.52 237.47" style="fill:#263238"></polygon><polygon points="369.73 244.36 364.78 247.72 364.34 247.07 369.3 243.72 369.73 244.36" style="fill:#263238"></polygon><polygon points="359.8 251.03 354.78 254.3 354.34 253.62 359.36 250.37 359.8 251.03" style="fill:#263238"></polygon><polygon points="349.73 257.51 344.65 260.68 344.22 259.98 349.3 256.82 349.73 257.51" style="fill:#263238"></polygon><polygon points="339.55 263.8 334.41 266.88 333.98 266.15 339.11 263.09 339.55 263.8" style="fill:#263238"></polygon><polygon points="329.25 269.92 324.07 272.92 323.63 272.15 328.82 269.18 329.25 269.92" style="fill:#263238"></polygon><polygon points="318.86 275.87 313.63 278.78 313.2 277.99 318.43 275.1 318.86 275.87" style="fill:#263238"></polygon><polygon points="308.38 281.65 303.11 284.48 302.67 283.67 307.95 280.85 308.38 281.65" style="fill:#263238"></polygon><polygon points="297.81 287.27 292.5 290.02 292.06 289.18 297.38 286.44 297.81 287.27" style="fill:#263238"></polygon><polygon points="287.16 292.74 281.8 295.41 281.38 294.55 286.73 291.88 287.16 292.74" style="fill:#263238"></polygon><polygon points="276.43 298.05 271.04 300.65 270.61 299.75 276 297.17 276.43 298.05" style="fill:#263238"></polygon><polygon points="265.62 303.21 260.19 305.72 259.78 304.83 265.2 302.31 265.62 303.21" style="fill:#263238"></polygon><polygon points="254.73 308.19 249.26 310.63 248.88 309.75 254.34 307.31 254.73 308.19" style="fill:#263238"></polygon><polygon points="243.78 313.02 238.27 315.38 237.91 314.51 243.4 312.15 243.78 313.02" style="fill:#263238"></polygon><polygon points="232.75 317.69 227.21 319.96 226.86 319.12 232.39 316.84 232.75 317.69" style="fill:#263238"></polygon><polygon points="221.65 322.19 216.07 324.37 215.75 323.54 221.32 321.35 221.65 322.19" style="fill:#263238"></polygon><polygon points="210.48 326.51 204.87 328.61 204.57 327.8 210.17 325.69 210.48 326.51" style="fill:#263238"></polygon><polygon points="199.25 330.65 193.6 332.65 193.32 331.86 198.96 329.85 199.25 330.65" style="fill:#263238"></polygon><polygon points="187.94 334.6 182.26 336.5 182 335.72 187.67 333.81 187.94 334.6" style="fill:#263238"></polygon><polygon points="176.56 338.34 170.85 340.12 170.61 339.36 176.32 337.57 176.56 338.34" style="fill:#263238"></polygon><polygon points="165.11 341.85 159.36 343.51 159.15 342.77 164.89 341.1 165.11 341.85" style="fill:#263238"></polygon><polygon points="153.59 345.11 147.8 346.64 147.61 345.92 153.39 344.38 153.59 345.11" style="fill:#263238"></polygon><polygon points="141.99 348.1 136.16 349.48 136 348.77 141.81 347.38 141.99 348.1" style="fill:#263238"></polygon><polygon points="130.31 350.77 124.44 351.98 124.31 351.29 130.16 350.08 130.31 350.77" style="fill:#263238"></polygon><polygon points="118.56 353.08 112.65 354.07 112.54 353.4 118.43 352.4 118.56 353.08" style="fill:#263238"></polygon><polygon points="106.72 354.94 100.77 355.68 100.7 355.03 106.63 354.29 106.72 354.94" style="fill:#263238"></polygon><polygon points="94.81 356.26 88.82 356.67 88.79 356.04 94.75 355.62 94.81 356.26" style="fill:#263238"></polygon><polygon points="82.83 356.86 76.83 356.8 76.85 356.19 82.82 356.24 82.83 356.86" style="fill:#263238"></polygon><polygon points="70.83 356.43 64.87 355.68 64.97 355.1 70.89 355.84 70.83 356.43" style="fill:#263238"></polygon><path d="M59,354.41a44.07,44.07,0,0,1-5.7-2l.22-.51a44.3,44.3,0,0,0,5.62,1.92Z" style="fill:#263238"></path><path d="M48,349.54a20.64,20.64,0,0,1-4.4-4.15l.42-.33a19.84,19.84,0,0,0,4.3,4Z" style="fill:#263238"></path><path d="M40.81,340a19.3,19.3,0,0,1-.84-6h.52a18.46,18.46,0,0,0,.82,5.82Z" style="fill:#263238"></path><path d="M40.77,328.07a39.33,39.33,0,0,1,1.91-5.7l.43.17a38.86,38.86,0,0,0-1.85,5.65Z" style="fill:#263238"></path><polygon points="45.29 316.96 48.39 311.83 48.72 312.04 45.67 317.17 45.29 316.96" style="fill:#263238"></polygon><polygon points="51.83 306.92 55.53 302.21 55.78 302.41 52.12 307.13 51.83 306.92" style="fill:#263238"></polygon><polygon points="59.42 297.66 63.49 293.26 63.67 293.44 59.64 297.86 59.42 297.66" style="fill:#263238"></polygon><polygon points="67.68 288.99 71.99 284.84 72.12 284.98 67.84 289.15 67.68 288.99" style="fill:#263238"></polygon><polygon points="76.39 280.79 80.88 276.82 80.95 276.92 76.49 280.9 76.39 280.79" style="fill:#263238"></polygon><polygon points="85.44 272.95 90.06 269.16 90.09 269.2 85.49 273.02 85.44 272.95" style="fill:#263238"></polygon><polygon points="94.82 265.39 97.19 263.55 94.83 265.4 94.82 265.39" style="fill:#263238"></polygon></g></svg>